<svg id="svg" version="1.1" xmlns="http://www.w3.org/2000/svg" xmlns:xlink="http://www.w3.org/1999/xlink" width="400" height="390.2439024390244" viewBox="0, 0, 400,390.2439024390244"><g id="svgg"><path id="path0" d="M24.585 78.049 C 24.585 78.263,24.141 78.439,23.598 78.439 C 23.054 78.439,22.509 78.702,22.385 79.024 C 22.261 79.346,21.916 79.610,21.617 79.610 C 21.318 79.610,21.073 79.873,21.073 80.195 C 21.073 80.517,20.810 80.780,20.488 80.780 C 20.098 80.780,19.902 81.171,19.902 81.951 C 19.902 82.595,19.727 83.122,19.512 83.122 C 19.253 83.122,19.122 109.203,19.122 160.585 C 19.122 211.967,19.253 238.049,19.512 238.049 C 19.733 238.049,19.902 239.159,19.902 240.598 C 19.902 242.503,20.050 243.203,20.488 243.371 C 20.908 243.532,21.073 244.190,21.073 245.700 C 21.073 247.311,21.211 247.805,21.659 247.805 C 22.101 247.805,22.244 248.283,22.244 249.768 C 22.244 251.154,22.416 251.798,22.829 251.956 C 23.211 252.103,23.415 252.710,23.415 253.700 C 23.415 254.791,23.580 255.220,24.000 255.220 C 24.423 255.220,24.585 255.653,24.585 256.780 C 24.585 257.639,24.761 258.341,24.976 258.341 C 25.190 258.341,25.366 258.868,25.366 259.512 C 25.366 260.293,25.561 260.683,25.951 260.683 C 26.374 260.683,26.537 261.117,26.537 262.244 C 26.537 263.371,26.699 263.805,27.122 263.805 C 27.545 263.805,27.707 264.240,27.707 265.378 C 27.707 266.417,27.906 267.028,28.293 267.176 C 28.674 267.322,28.878 267.929,28.878 268.920 C 28.878 269.755,29.054 270.439,29.268 270.439 C 29.483 270.439,29.659 270.884,29.659 271.427 C 29.659 271.970,29.922 272.516,30.244 272.639 C 30.626 272.786,30.829 273.393,30.829 274.383 C 30.829 275.473,30.995 275.902,31.415 275.902 C 31.837 275.902,32.000 276.336,32.000 277.463 C 32.000 278.591,32.163 279.024,32.585 279.024 C 33.005 279.024,33.171 279.453,33.171 280.544 C 33.171 281.534,33.374 282.141,33.756 282.287 C 34.078 282.411,34.341 282.957,34.341 283.500 C 34.341 284.043,34.517 284.488,34.732 284.488 C 34.946 284.488,35.122 285.190,35.122 286.049 C 35.122 287.176,35.285 287.610,35.707 287.610 C 36.131 287.610,36.293 288.045,36.293 289.183 C 36.293 290.221,36.492 290.833,36.878 290.981 C 37.260 291.127,37.463 291.734,37.463 292.725 C 37.463 293.815,37.629 294.244,38.049 294.244 C 38.439 294.244,38.634 294.634,38.634 295.415 C 38.634 296.059,38.810 296.585,39.024 296.585 C 39.239 296.585,39.415 297.206,39.415 297.963 C 39.415 298.828,39.633 299.425,40.000 299.566 C 40.382 299.713,40.585 300.320,40.585 301.310 C 40.585 302.400,40.751 302.829,41.171 302.829 C 41.561 302.829,41.756 303.220,41.756 304.000 C 41.756 304.780,41.951 305.171,42.341 305.171 C 42.706 305.171,42.927 305.539,42.927 306.146 C 42.927 306.753,43.148 307.122,43.512 307.122 C 43.834 307.122,44.098 307.385,44.098 307.707 C 44.098 308.029,44.273 308.293,44.488 308.293 C 44.702 308.293,44.878 308.556,44.878 308.878 C 44.878 309.200,45.141 309.463,45.463 309.463 C 45.785 309.463,46.049 309.727,46.049 310.049 C 46.049 310.371,46.293 310.634,46.592 310.634 C 46.891 310.634,47.237 310.898,47.361 311.220 C 47.484 311.541,47.932 311.805,48.355 311.805 C 48.778 311.805,49.233 311.980,49.366 312.195 C 49.699 312.734,105.756 312.734,105.756 312.195 C 105.756 311.980,106.195 311.805,106.732 311.805 C 107.339 311.805,107.707 311.584,107.707 311.220 C 107.707 310.884,108.059 310.634,108.530 310.634 C 109.633 310.634,111.204 309.091,111.213 308.000 C 111.216 307.517,111.395 307.122,111.610 307.122 C 111.824 307.122,112.000 306.683,112.000 306.146 C 112.000 305.539,112.221 305.171,112.585 305.171 C 113.005 305.171,113.171 304.742,113.171 303.652 C 113.171 302.661,113.374 302.054,113.756 301.908 C 114.142 301.759,114.341 301.148,114.341 300.110 C 114.341 298.972,114.503 298.537,114.927 298.537 C 115.375 298.537,115.512 298.043,115.512 296.432 C 115.512 294.921,115.677 294.264,116.098 294.103 C 116.465 293.962,116.683 293.365,116.683 292.500 C 116.683 291.742,116.859 291.122,117.073 291.122 C 117.288 291.122,117.463 290.156,117.463 288.976 C 117.463 287.328,117.599 286.829,118.049 286.829 C 118.482 286.829,118.634 286.374,118.634 285.073 C 118.634 283.772,118.786 283.317,119.220 283.317 C 119.669 283.317,119.805 282.818,119.805 281.171 C 119.805 279.523,119.941 279.024,120.390 279.024 C 120.813 279.024,120.976 278.591,120.976 277.463 C 120.976 276.605,121.151 275.902,121.366 275.902 C 121.580 275.902,121.756 275.194,121.756 274.329 C 121.756 273.291,121.955 272.680,122.341 272.531 C 122.762 272.370,122.927 271.713,122.927 270.202 C 122.927 268.592,123.064 268.098,123.512 268.098 C 123.932 268.098,124.098 267.669,124.098 266.578 C 124.098 265.588,124.301 264.981,124.683 264.834 C 125.094 264.677,125.268 264.036,125.268 262.688 C 125.268 261.340,125.443 260.699,125.854 260.542 C 126.218 260.402,126.439 259.807,126.439 258.962 C 126.439 258.217,126.615 257.499,126.829 257.366 C 127.044 257.233,127.220 256.276,127.220 255.238 C 127.220 253.921,127.396 253.284,127.805 253.127 C 128.191 252.979,128.390 252.368,128.390 251.329 C 128.390 250.191,128.552 249.756,128.976 249.756 C 129.333 249.756,129.561 249.392,129.561 248.822 C 129.561 248.309,129.824 247.787,130.146 247.664 C 130.468 247.540,130.732 246.995,130.732 246.451 C 130.732 245.559,130.883 245.463,132.293 245.463 C 133.420 245.463,133.854 245.301,133.854 244.878 C 133.854 244.458,134.283 244.293,135.373 244.293 C 136.363 244.293,136.970 244.496,137.117 244.878 C 137.240 245.200,137.786 245.463,138.329 245.463 C 138.947 245.463,139.317 245.683,139.317 246.049 C 139.317 246.371,139.580 246.634,139.902 246.634 C 140.267 246.634,140.488 247.003,140.488 247.610 C 140.488 248.217,140.709 248.585,141.073 248.585 C 141.507 248.585,141.659 249.041,141.659 250.341 C 141.659 251.307,141.834 252.098,142.049 252.098 C 142.263 252.098,142.439 252.981,142.439 254.061 C 142.439 255.446,142.611 256.091,143.024 256.249 C 143.406 256.396,143.610 257.003,143.610 257.993 C 143.610 259.083,143.775 259.512,144.195 259.512 C 144.644 259.512,144.780 260.011,144.780 261.659 C 144.780 263.306,144.916 263.805,145.366 263.805 C 145.799 263.805,145.951 264.260,145.951 265.561 C 145.951 266.527,146.127 267.317,146.341 267.317 C 146.556 267.317,146.732 268.201,146.732 269.281 C 146.732 270.666,146.904 271.310,147.317 271.469 C 147.728 271.626,147.902 272.267,147.902 273.615 C 147.902 274.963,148.077 275.604,148.488 275.761 C 148.869 275.908,149.073 276.515,149.073 277.505 C 149.073 278.595,149.238 279.024,149.659 279.024 C 150.108 279.024,150.244 279.523,150.244 281.171 C 150.244 282.818,150.380 283.317,150.829 283.317 C 151.263 283.317,151.415 283.772,151.415 285.073 C 151.415 286.039,151.590 286.829,151.805 286.829 C 152.020 286.829,152.195 287.713,152.195 288.793 C 152.195 290.178,152.367 290.822,152.780 290.981 C 153.162 291.127,153.366 291.734,153.366 292.725 C 153.366 293.815,153.531 294.244,153.951 294.244 C 154.401 294.244,154.537 294.743,154.537 296.390 C 154.537 298.038,154.673 298.537,155.122 298.537 C 155.556 298.537,155.707 298.992,155.707 300.293 C 155.707 301.259,155.883 302.049,156.098 302.049 C 156.312 302.049,156.488 302.669,156.488 303.427 C 156.488 304.292,156.706 304.889,157.073 305.030 C 157.395 305.153,157.659 305.674,157.659 306.188 C 157.659 306.758,157.887 307.122,158.244 307.122 C 158.566 307.122,158.829 307.385,158.829 307.707 C 158.829 308.029,159.093 308.293,159.415 308.293 C 159.737 308.293,160.000 308.556,160.000 308.878 C 160.000 309.200,160.263 309.463,160.585 309.463 C 160.907 309.463,161.171 309.662,161.171 309.905 C 161.171 310.737,162.850 311.805,164.157 311.805 C 164.876 311.805,165.463 311.980,165.463 312.195 C 165.463 312.445,168.911 312.585,175.024 312.585 C 185.233 312.585,186.224 312.375,183.003 310.889 C 181.405 310.153,179.512 307.861,179.512 306.664 C 179.512 306.297,179.337 305.889,179.122 305.756 C 178.868 305.599,178.736 296.562,178.744 279.879 C 178.757 253.152,178.851 251.372,180.612 244.683 C 181.213 242.402,183.838 236.705,185.738 233.561 C 186.386 232.488,187.040 231.346,187.191 231.024 C 187.342 230.702,187.915 229.801,188.465 229.022 C 189.014 228.242,189.727 227.211,190.049 226.730 C 190.371 226.249,190.854 225.626,191.122 225.346 C 191.390 225.066,191.610 224.715,191.610 224.567 C 191.610 224.419,192.143 223.660,192.794 222.881 C 194.160 221.246,194.313 221.040,195.196 219.665 C 195.555 219.104,196.114 218.381,196.439 218.056 C 196.763 217.732,197.440 216.873,197.942 216.148 C 199.055 214.541,204.720 206.805,205.228 206.198 C 207.048 204.024,216.715 190.588,216.715 190.233 C 216.715 189.821,214.400 186.246,213.816 185.756 C 213.688 185.649,212.031 183.454,210.134 180.878 C 208.236 178.302,204.920 173.824,202.763 170.927 C 200.607 168.029,198.445 165.081,197.959 164.374 C 197.473 163.668,196.635 162.616,196.098 162.037 C 195.561 161.457,195.122 160.863,195.122 160.715 C 195.122 160.567,194.900 160.214,194.629 159.930 C 193.502 158.753,191.610 156.152,191.610 155.781 C 191.610 155.562,191.459 155.324,191.275 155.252 C 190.457 154.934,184.096 144.879,182.153 140.833 C 180.963 138.354,180.400 136.389,179.790 132.585 C 179.517 130.882,179.187 129.951,178.855 129.951 C 178.434 129.951,178.341 136.677,178.341 167.220 C 178.341 200.087,178.272 204.488,177.756 204.488 C 177.366 204.488,177.171 204.098,177.171 203.317 C 177.171 202.537,176.976 202.146,176.585 202.146 C 176.163 202.146,176.000 201.713,176.000 200.585 C 176.000 199.727,175.838 199.024,175.641 199.024 C 175.443 199.024,175.166 198.498,175.024 197.854 C 174.883 197.210,174.606 196.683,174.408 196.683 C 174.210 196.683,174.049 196.244,174.049 195.707 C 174.049 195.100,173.828 194.732,173.463 194.732 C 173.073 194.732,172.878 194.341,172.878 193.561 C 172.878 192.780,172.683 192.390,172.293 192.390 C 171.928 192.390,171.707 192.022,171.707 191.415 C 171.707 190.808,171.486 190.439,171.122 190.439 C 170.688 190.439,170.537 189.984,170.537 188.683 C 170.537 187.717,170.361 186.927,170.146 186.927 C 169.932 186.927,169.756 186.570,169.756 186.134 C 169.756 185.698,169.493 185.240,169.171 185.117 C 168.849 184.993,168.585 184.466,168.585 183.946 C 168.585 183.426,168.322 182.899,168.000 182.775 C 167.678 182.652,167.415 182.130,167.415 181.617 C 167.415 181.047,167.187 180.683,166.829 180.683 C 166.439 180.683,166.244 180.293,166.244 179.512 C 166.244 178.868,166.068 178.341,165.854 178.341 C 165.639 178.341,165.463 177.897,165.463 177.354 C 165.463 176.810,165.200 176.265,164.878 176.141 C 164.515 176.002,164.293 175.408,164.293 174.580 C 164.293 173.752,164.070 173.158,163.707 173.019 C 163.385 172.896,163.122 172.374,163.122 171.861 C 163.122 171.291,162.894 170.927,162.537 170.927 C 162.146 170.927,161.951 170.537,161.951 169.756 C 161.951 168.976,161.756 168.585,161.366 168.585 C 161.005 168.585,160.780 168.219,160.780 167.633 C 160.780 167.109,160.605 166.572,160.390 166.439 C 160.176 166.306,160.000 165.851,160.000 165.428 C 160.000 165.005,159.737 164.557,159.415 164.434 C 159.093 164.310,158.829 163.965,158.829 163.666 C 158.829 163.367,158.566 163.122,158.244 163.122 C 157.922 163.122,157.659 162.859,157.659 162.537 C 157.659 162.215,157.437 161.951,157.166 161.951 C 156.895 161.951,156.343 161.512,155.940 160.976 C 155.521 160.418,154.814 160.000,154.287 160.000 C 153.728 160.000,153.366 159.770,153.366 159.415 C 153.366 158.992,152.932 158.829,151.805 158.829 C 150.678 158.829,150.244 158.667,150.244 158.244 C 150.244 157.734,148.358 157.659,135.610 157.659 C 122.862 157.659,120.976 157.734,120.976 158.244 C 120.976 158.634,120.585 158.829,119.805 158.829 C 119.024 158.829,118.634 159.024,118.634 159.415 C 118.634 159.779,118.266 160.000,117.659 160.000 C 117.051 160.000,116.683 160.221,116.683 160.585 C 116.683 160.907,116.420 161.171,116.098 161.171 C 115.776 161.171,115.512 161.346,115.512 161.561 C 115.512 161.776,115.249 161.951,114.927 161.951 C 114.605 161.951,114.341 162.215,114.341 162.537 C 114.341 162.859,114.078 163.122,113.756 163.122 C 113.434 163.122,113.171 163.385,113.171 163.707 C 113.171 164.029,112.995 164.293,112.780 164.293 C 112.566 164.293,112.390 164.732,112.390 165.268 C 112.390 165.875,112.169 166.244,111.805 166.244 C 111.415 166.244,111.220 166.634,111.220 167.415 C 111.220 168.195,111.024 168.585,110.634 168.585 C 110.244 168.585,110.049 168.976,110.049 169.756 C 110.049 170.537,109.854 170.927,109.463 170.927 C 109.106 170.927,108.878 171.291,108.878 171.861 C 108.878 172.374,108.615 172.896,108.293 173.019 C 107.971 173.143,107.707 173.688,107.707 174.232 C 107.707 174.775,107.532 175.220,107.317 175.220 C 107.102 175.220,106.927 175.659,106.927 176.195 C 106.927 176.802,106.706 177.171,106.341 177.171 C 105.908 177.171,105.756 177.626,105.756 178.927 C 105.756 180.228,105.604 180.683,105.171 180.683 C 104.807 180.683,104.585 181.051,104.585 181.659 C 104.585 182.266,104.364 182.634,104.000 182.634 C 103.610 182.634,103.415 183.024,103.415 183.805 C 103.415 184.449,103.239 184.976,103.024 184.976 C 102.810 184.976,102.634 185.415,102.634 185.951 C 102.634 186.558,102.413 186.927,102.049 186.927 C 101.659 186.927,101.463 187.317,101.463 188.098 C 101.463 188.878,101.268 189.268,100.878 189.268 C 100.455 189.268,100.293 189.702,100.293 190.829 C 100.293 191.957,100.130 192.390,99.707 192.390 C 99.317 192.390,99.122 192.780,99.122 193.561 C 99.122 194.341,98.927 194.732,98.537 194.732 C 98.172 194.732,97.951 195.100,97.951 195.707 C 97.951 196.244,97.776 196.683,97.561 196.683 C 97.346 196.683,97.171 197.210,97.171 197.854 C 97.171 198.634,96.976 199.024,96.585 199.024 C 96.228 199.024,96.000 199.388,96.000 199.958 C 96.000 200.472,95.737 200.993,95.415 201.117 C 95.093 201.240,94.829 201.786,94.829 202.329 C 94.829 202.947,94.610 203.317,94.244 203.317 C 93.726 203.317,93.659 196.379,93.659 143.220 C 93.659 90.060,93.591 83.122,93.073 83.122 C 92.701 83.122,92.488 82.748,92.488 82.095 C 92.488 80.890,90.115 78.439,88.948 78.439 C 88.534 78.439,88.195 78.263,88.195 78.049 C 88.195 77.792,77.333 77.659,56.390 77.659 C 35.447 77.659,24.585 77.792,24.585 78.049 " stroke="none" fill="#fbfbfb" fill-rule="evenodd"></path><path id="path1" d="M183.477 78.280 C 183.190 78.605,182.762 78.807,182.526 78.728 C 182.042 78.567,180.683 79.793,180.683 80.390 C 180.683 80.605,180.420 80.780,180.098 80.780 C 179.707 80.780,179.512 81.171,179.512 81.951 C 179.512 82.732,179.317 83.122,178.927 83.122 C 178.414 83.122,178.341 85.592,178.341 103.012 C 178.341 119.683,178.428 122.869,178.876 122.697 C 179.617 122.413,179.865 123.553,180.153 128.585 C 180.288 130.946,180.535 133.054,180.701 133.268 C 180.867 133.483,181.119 134.361,181.261 135.220 C 181.403 136.078,181.656 137.132,181.823 137.561 C 182.285 138.750,184.611 143.727,185.015 144.390 C 185.211 144.712,185.489 145.239,185.633 145.561 C 185.777 145.883,185.995 146.234,186.118 146.341 C 186.497 146.672,188.878 150.253,188.878 150.492 C 188.878 150.616,189.405 151.382,190.049 152.195 C 190.693 153.008,191.220 153.853,191.220 154.072 C 191.220 154.292,191.365 154.530,191.544 154.602 C 191.722 154.673,194.206 157.893,197.064 161.756 C 199.921 165.620,202.410 168.839,202.593 168.911 C 202.777 168.982,202.927 169.220,202.927 169.440 C 202.927 169.772,204.945 172.607,205.652 173.268 C 205.767 173.376,206.298 174.121,206.833 174.924 C 207.367 175.728,207.937 176.386,208.098 176.388 C 208.259 176.389,208.390 176.635,208.390 176.934 C 208.390 177.233,208.654 177.579,208.976 177.702 C 209.298 177.826,209.561 178.154,209.561 178.431 C 209.561 178.708,209.958 179.372,210.443 179.906 C 212.065 181.693,213.854 184.108,213.854 184.511 C 213.854 184.731,214.030 184.969,214.245 185.041 C 214.461 185.113,215.411 186.310,216.357 187.702 C 218.108 190.278,218.160 190.716,216.880 192.067 C 216.610 192.352,215.950 193.243,215.414 194.046 C 214.878 194.850,214.307 195.508,214.146 195.510 C 213.985 195.511,213.854 195.706,213.854 195.944 C 213.854 196.300,211.868 199.113,211.129 199.805 C 211.014 199.912,210.482 200.657,209.948 201.461 C 209.413 202.264,208.844 202.923,208.683 202.924 C 208.522 202.926,208.390 203.110,208.390 203.334 C 208.390 203.557,208.211 203.952,207.991 204.212 C 207.771 204.471,206.722 205.824,205.659 207.220 C 204.596 208.615,203.351 210.247,202.893 210.846 C 202.434 211.446,200.482 214.080,198.555 216.700 C 196.628 219.320,194.892 221.522,194.697 221.593 C 194.501 221.665,194.341 221.903,194.341 222.123 C 194.341 222.555,192.000 225.673,191.515 225.886 C 191.353 225.958,191.220 226.196,191.220 226.415 C 191.220 226.635,190.693 227.480,190.049 228.293 C 189.405 229.106,188.878 229.879,188.878 230.011 C 188.878 230.143,188.351 230.978,187.707 231.867 C 187.063 232.756,186.537 233.705,186.537 233.977 C 186.537 234.249,186.405 234.530,186.244 234.602 C 185.856 234.774,184.859 236.844,181.858 243.707 C 181.670 244.137,181.407 245.318,181.273 246.332 C 181.138 247.347,180.863 248.279,180.660 248.404 C 180.458 248.529,180.291 249.543,180.289 250.657 C 180.287 251.771,180.026 254.878,179.707 257.561 C 178.859 264.712,178.859 301.596,179.707 304.000 C 180.029 304.913,180.293 306.043,180.293 306.512 C 180.293 308.040,183.988 311.024,185.881 311.024 C 186.897 311.024,187.707 311.475,187.707 312.042 C 187.707 312.502,192.244 312.585,217.152 312.585 C 247.089 312.585,248.585 312.517,248.585 311.157 C 248.585 310.869,248.849 310.634,249.171 310.634 C 249.493 310.634,249.756 310.371,249.756 310.049 C 249.756 309.727,249.999 309.463,250.296 309.463 C 250.593 309.463,250.932 309.095,251.050 308.644 C 251.168 308.193,251.409 307.913,251.584 308.022 C 251.760 308.130,251.959 307.318,252.026 306.217 C 252.093 305.116,252.313 304.016,252.515 303.772 C 252.733 303.510,252.922 294.446,252.978 281.551 C 253.052 264.543,253.180 259.737,253.561 259.610 C 253.841 259.517,254.049 258.795,254.049 257.919 C 254.049 256.820,254.213 256.390,254.634 256.390 C 254.956 256.390,255.220 256.209,255.220 255.987 C 255.220 255.765,255.746 255.068,256.390 254.439 C 257.034 253.810,257.561 253.025,257.561 252.696 C 257.561 252.367,257.737 252.098,257.951 252.098 C 258.166 252.098,258.341 251.834,258.341 251.512 C 258.341 251.190,258.605 250.927,258.927 250.927 C 259.317 250.927,259.512 250.537,259.512 249.756 C 259.512 248.976,259.707 248.585,260.098 248.585 C 260.420 248.585,260.683 248.322,260.683 248.000 C 260.683 247.678,260.946 247.415,261.268 247.415 C 261.590 247.415,261.854 247.146,261.854 246.817 C 261.854 246.488,262.117 246.118,262.439 245.995 C 262.761 245.871,263.024 245.438,263.024 245.031 C 263.024 244.625,263.200 244.293,263.415 244.293 C 263.629 244.293,263.805 244.029,263.805 243.707 C 263.805 243.385,264.024 243.166,264.293 243.220 C 264.567 243.274,264.835 242.847,264.904 242.244 C 264.975 241.630,265.267 241.171,265.587 241.171 C 265.895 241.171,266.146 240.907,266.146 240.585 C 266.146 240.263,266.429 240.000,266.773 240.000 C 267.154 240.000,267.317 239.783,267.188 239.447 C 267.072 239.143,267.228 238.797,267.537 238.679 C 267.845 238.560,268.098 238.107,268.098 237.671 C 268.098 237.226,268.355 236.878,268.683 236.878 C 269.005 236.878,269.268 236.633,269.268 236.334 C 269.268 236.035,269.532 235.690,269.854 235.566 C 270.176 235.443,270.439 235.011,270.439 234.607 C 270.439 234.203,270.962 233.472,271.601 232.982 C 272.240 232.493,272.669 231.940,272.553 231.753 C 272.438 231.567,272.618 231.415,272.953 231.415 C 273.287 231.415,273.561 231.151,273.561 230.829 C 273.561 230.439,273.951 230.244,274.732 230.244 C 275.512 230.244,275.902 230.049,275.902 229.659 C 275.902 229.184,276.531 229.073,279.220 229.073 C 281.840 229.073,282.537 229.191,282.537 229.633 C 282.537 229.953,282.996 230.245,283.610 230.316 C 284.213 230.385,284.640 230.652,284.585 230.927 C 284.532 231.195,284.672 231.415,284.897 231.415 C 285.122 231.415,285.757 231.898,286.310 232.488 C 286.862 233.078,287.468 233.517,287.657 233.463 C 287.846 233.410,288.000 233.615,288.000 233.919 C 288.000 234.223,288.183 234.533,288.408 234.607 C 288.632 234.682,288.845 235.136,288.881 235.616 C 288.917 236.095,289.173 236.488,289.449 236.488 C 289.725 236.488,289.951 236.849,289.951 237.291 C 289.951 237.733,290.128 237.985,290.345 237.852 C 290.760 237.595,291.544 239.206,291.248 239.707 C 291.153 239.868,291.350 240.000,291.684 240.000 C 292.019 240.000,292.293 240.263,292.293 240.585 C 292.293 240.907,292.556 241.171,292.878 241.171 C 293.200 241.171,293.463 241.434,293.463 241.756 C 293.463 242.078,293.639 242.341,293.854 242.341 C 294.068 242.341,294.244 242.698,294.244 243.134 C 294.244 243.570,294.507 244.028,294.829 244.152 C 295.151 244.275,295.415 244.621,295.415 244.920 C 295.415 245.219,295.656 245.463,295.951 245.463 C 296.246 245.463,296.595 246.002,296.727 246.660 C 296.860 247.325,297.142 247.748,297.361 247.613 C 297.578 247.478,297.756 247.628,297.756 247.944 C 297.756 248.261,297.940 248.581,298.164 248.656 C 298.388 248.731,298.600 249.180,298.636 249.654 C 298.672 250.128,298.928 250.603,299.204 250.709 C 299.481 250.815,299.707 251.171,299.707 251.500 C 299.707 251.829,299.971 252.098,300.293 252.098 C 300.615 252.098,300.878 252.361,300.878 252.683 C 300.878 253.005,301.141 253.268,301.463 253.268 C 301.785 253.268,302.049 253.598,302.049 254.001 C 302.049 254.404,302.310 254.951,302.630 255.216 C 302.949 255.481,303.115 255.854,302.997 256.044 C 302.879 256.235,303.057 256.390,303.392 256.390 C 303.943 256.390,304.170 257.227,304.106 259.020 C 304.096 259.286,304.232 259.415,304.407 259.307 C 305.096 258.881,305.153 260.502,305.181 281.314 C 305.205 299.845,305.287 302.829,305.775 302.829 C 306.212 302.829,306.341 303.411,306.341 305.378 C 306.341 307.284,306.489 307.984,306.927 308.152 C 307.249 308.275,307.512 308.621,307.512 308.920 C 307.512 309.219,307.688 309.463,307.902 309.463 C 308.117 309.463,308.293 309.727,308.293 310.049 C 308.293 310.371,308.556 310.634,308.878 310.634 C 309.200 310.634,309.463 310.859,309.463 311.134 C 309.463 311.410,309.946 311.674,310.537 311.723 C 311.127 311.772,311.668 311.986,311.740 312.198 C 311.824 312.450,322.944 312.585,343.500 312.585 L 375.130 312.585 376.034 311.610 C 376.531 311.073,377.122 310.634,377.347 310.634 C 377.572 310.634,377.756 310.390,377.756 310.091 C 377.756 309.792,378.020 309.446,378.341 309.322 C 378.663 309.199,378.927 308.668,378.927 308.142 C 378.927 307.617,379.129 307.120,379.376 307.037 C 379.623 306.955,379.908 305.890,380.009 304.670 C 380.110 303.450,380.339 302.542,380.516 302.652 C 380.694 302.762,380.852 293.380,380.868 281.803 C 380.886 268.595,380.756 260.704,380.520 260.621 C 380.307 260.546,380.106 258.055,380.057 254.890 C 379.992 250.637,379.846 249.245,379.449 249.093 C 379.109 248.962,378.923 248.192,378.914 246.885 C 378.907 245.743,378.655 244.552,378.329 244.121 C 378.014 243.704,377.756 242.884,377.756 242.299 C 377.756 240.913,377.375 239.948,376.935 240.220 C 376.743 240.339,376.585 239.899,376.585 239.243 C 376.585 238.442,376.393 238.049,376.000 238.049 C 375.613 238.049,375.415 237.662,375.415 236.911 C 375.415 236.285,375.231 235.711,375.007 235.636 C 374.783 235.562,374.570 235.108,374.534 234.628 C 374.498 234.149,374.261 233.756,374.008 233.756 C 373.755 233.756,373.438 233.317,373.303 232.780 C 373.168 232.244,372.886 231.805,372.675 231.805 C 372.465 231.805,372.293 231.536,372.293 231.207 C 372.293 230.879,372.029 230.509,371.707 230.385 C 371.385 230.261,371.122 229.740,371.122 229.227 C 371.122 228.713,370.946 228.293,370.732 228.293 C 370.517 228.293,370.341 228.029,370.341 227.707 C 370.341 227.385,370.078 227.122,369.756 227.122 C 369.234 227.122,368.965 226.376,369.140 225.416 C 369.175 225.228,368.932 225.179,368.601 225.306 C 368.185 225.465,368.000 225.300,368.000 224.768 C 368.000 224.346,367.737 224.000,367.415 224.000 C 367.093 224.000,366.829 223.737,366.829 223.415 C 366.829 223.093,366.566 222.829,366.244 222.829 C 365.884 222.829,365.659 222.464,365.659 221.882 C 365.659 221.336,365.245 220.609,364.683 220.167 C 364.146 219.745,363.707 219.206,363.707 218.968 C 363.707 218.731,363.444 218.537,363.122 218.537 C 362.615 218.537,362.440 218.081,362.572 217.108 C 362.591 216.967,362.327 216.694,361.986 216.503 C 361.645 216.313,361.366 215.872,361.366 215.525 C 361.366 215.178,361.263 214.997,361.138 215.122 C 360.758 215.503,359.415 213.906,359.415 213.073 C 359.415 212.640,359.154 212.293,358.829 212.293 C 358.507 212.293,358.244 211.947,358.244 211.524 C 358.244 211.002,358.057 210.828,357.659 210.981 C 357.288 211.123,357.073 210.975,357.073 210.578 C 357.073 210.233,356.848 209.951,356.573 209.951 C 356.048 209.951,354.972 207.761,355.088 206.927 C 355.126 206.659,354.885 206.439,354.554 206.439 C 354.222 206.439,353.951 206.165,353.951 205.831 C 353.951 205.496,353.774 205.332,353.558 205.465 C 353.138 205.725,352.360 204.109,352.660 203.600 C 352.758 203.434,352.694 203.346,352.517 203.405 C 352.340 203.464,351.800 203.117,351.317 202.634 C 350.834 202.151,350.527 201.756,350.634 201.756 C 350.741 201.756,350.464 201.391,350.019 200.945 C 349.573 200.500,349.307 199.876,349.429 199.559 C 349.561 199.216,349.483 199.087,349.238 199.239 C 349.011 199.379,348.729 199.124,348.611 198.673 C 348.493 198.223,348.154 197.854,347.857 197.854 C 347.560 197.854,347.317 197.590,347.317 197.268 C 347.317 196.946,347.054 196.683,346.732 196.683 C 346.374 196.683,346.146 196.319,346.146 195.749 C 346.146 195.235,345.872 194.710,345.536 194.581 C 345.201 194.452,345.035 194.170,345.169 193.954 C 345.303 193.738,345.138 193.561,344.804 193.561 C 344.469 193.561,344.195 193.298,344.195 192.976 C 344.195 192.654,343.932 192.390,343.610 192.390 C 343.285 192.390,343.024 192.043,343.024 191.610 C 343.024 191.176,342.764 190.829,342.439 190.829 C 342.117 190.829,341.854 190.654,341.854 190.439 C 341.854 190.224,342.117 190.049,342.439 190.049 C 342.761 190.049,343.024 189.804,343.024 189.505 C 343.024 189.206,343.288 188.860,343.610 188.737 C 343.932 188.613,344.195 188.235,344.195 187.896 C 344.195 187.557,344.634 186.873,345.171 186.376 C 345.707 185.878,346.146 185.272,346.146 185.028 C 346.146 184.785,346.366 184.629,346.634 184.683 C 346.909 184.738,347.176 184.311,347.245 183.707 C 347.316 183.093,347.608 182.634,347.928 182.634 C 348.236 182.634,348.488 182.449,348.488 182.222 C 348.488 181.995,349.035 181.310,349.705 180.698 C 350.374 180.087,350.802 179.393,350.656 179.157 C 350.509 178.920,350.664 178.621,351.000 178.492 C 351.335 178.363,351.610 178.013,351.610 177.714 C 351.610 177.415,351.873 177.171,352.195 177.171 C 352.517 177.171,352.780 176.907,352.780 176.585 C 352.780 176.263,353.007 176.000,353.283 176.000 C 353.559 176.000,353.811 175.661,353.842 175.246 C 353.873 174.831,354.218 174.146,354.608 173.724 C 356.648 171.518,357.073 170.975,357.073 170.579 C 357.073 170.116,358.699 168.347,359.024 168.455 C 359.132 168.491,359.244 168.102,359.275 167.591 C 359.332 166.642,360.233 165.463,360.902 165.463 C 361.107 165.463,361.371 165.095,361.489 164.644 C 361.607 164.192,361.891 163.940,362.120 164.081 C 362.381 164.242,362.537 163.892,362.537 163.145 C 362.537 162.344,362.729 161.951,363.122 161.951 C 363.444 161.951,363.707 161.717,363.707 161.432 C 363.707 161.146,364.146 160.677,364.683 160.390 C 365.371 160.022,365.659 159.542,365.659 158.763 C 365.659 158.041,365.861 157.659,366.244 157.659 C 366.566 157.659,366.829 157.414,366.829 157.115 C 366.829 156.816,367.093 156.470,367.415 156.347 C 367.737 156.223,368.000 155.859,368.000 155.537 C 368.000 155.170,368.224 155.037,368.601 155.182 C 368.932 155.309,369.175 155.260,369.140 155.072 C 368.963 154.100,369.238 153.366,369.779 153.366 C 370.114 153.366,370.278 153.189,370.145 152.973 C 370.011 152.757,370.176 152.475,370.512 152.346 C 370.878 152.205,371.122 151.643,371.122 150.941 C 371.122 150.061,371.267 149.826,371.707 149.995 C 372.147 150.163,372.293 149.930,372.293 149.061 C 372.293 148.291,372.489 147.902,372.878 147.902 C 373.200 147.902,373.463 147.639,373.463 147.317 C 373.463 146.995,373.727 146.732,374.049 146.732 C 374.409 146.732,374.634 146.366,374.634 145.779 C 374.634 145.255,374.810 144.718,375.024 144.585 C 375.239 144.453,375.415 143.934,375.415 143.433 C 375.415 142.932,375.678 142.421,376.000 142.298 C 376.367 142.157,376.585 141.560,376.585 140.695 C 376.585 139.730,376.761 139.317,377.171 139.317 C 377.552 139.317,377.756 138.935,377.756 138.221 C 377.756 137.618,378.014 136.784,378.329 136.367 C 378.659 135.931,378.907 134.740,378.914 133.561 C 378.923 132.142,379.083 131.512,379.436 131.512 C 379.830 131.512,379.970 130.074,380.052 125.175 C 380.110 121.689,380.325 118.635,380.530 118.388 C 381.026 117.790,380.959 87.318,380.462 87.626 C 380.252 87.756,380.098 86.853,380.098 85.486 C 380.098 83.645,379.968 83.122,379.512 83.122 C 379.122 83.122,378.927 82.732,378.927 81.951 C 378.927 81.171,378.732 80.780,378.341 80.780 C 378.020 80.780,377.756 80.517,377.756 80.195 C 377.756 79.873,377.511 79.610,377.212 79.610 C 376.913 79.610,376.564 79.335,376.435 79.000 C 376.306 78.664,376.050 78.483,375.865 78.597 C 375.681 78.711,375.196 78.552,374.789 78.244 C 373.649 77.381,312.417 77.381,311.554 78.244 C 311.232 78.566,310.630 78.829,310.216 78.829 C 309.802 78.829,309.463 79.005,309.463 79.220 C 309.463 79.434,309.200 79.610,308.878 79.610 C 308.556 79.610,308.293 79.873,308.293 80.195 C 308.293 80.517,308.117 80.780,307.902 80.780 C 307.688 80.780,307.512 81.307,307.512 81.951 C 307.512 82.732,307.317 83.122,306.927 83.122 C 306.477 83.122,306.341 83.621,306.341 85.268 C 306.341 86.840,306.196 87.415,305.799 87.415 C 305.501 87.415,305.266 87.634,305.276 87.902 C 305.591 96.405,305.073 122.146,304.585 122.146 C 304.221 122.146,304.000 122.515,304.000 123.122 C 304.000 123.745,303.780 124.098,303.392 124.098 C 303.057 124.098,302.879 124.253,302.997 124.444 C 303.115 124.634,302.949 125.007,302.630 125.272 C 302.310 125.537,302.049 126.084,302.049 126.487 C 302.049 126.890,301.785 127.220,301.463 127.220 C 301.141 127.220,300.878 127.483,300.878 127.805 C 300.878 128.127,300.615 128.390,300.293 128.390 C 299.971 128.390,299.707 128.654,299.707 128.976 C 299.707 129.298,299.532 129.561,299.317 129.561 C 299.102 129.561,298.927 129.900,298.927 130.314 C 298.927 130.728,298.663 131.330,298.341 131.652 C 298.020 131.974,297.756 132.420,297.756 132.643 C 297.756 132.866,297.493 132.948,297.171 132.824 C 296.728 132.654,296.585 132.894,296.585 133.812 C 296.585 134.630,296.395 135.024,296.000 135.024 C 295.678 135.024,295.415 135.288,295.415 135.610 C 295.415 135.932,295.223 136.195,294.989 136.195 C 294.377 136.195,293.101 137.830,293.086 138.634 C 293.079 139.010,292.898 139.317,292.683 139.317 C 292.468 139.317,292.293 139.562,292.293 139.861 C 292.293 140.160,292.029 140.505,291.707 140.629 C 291.385 140.752,291.122 141.122,291.122 141.451 C 291.122 142.127,289.530 143.860,289.055 143.701 C 288.883 143.644,288.796 143.908,288.860 144.287 C 288.925 144.674,288.762 144.933,288.488 144.878 C 288.220 144.824,288.000 145.126,288.000 145.548 C 288.000 146.326,285.557 149.073,284.865 149.073 C 284.658 149.073,284.488 149.337,284.488 149.659 C 284.488 150.023,284.119 150.244,283.512 150.244 C 282.905 150.244,282.537 150.465,282.537 150.829 C 282.537 151.304,281.908 151.415,279.220 151.415 C 276.531 151.415,275.902 151.304,275.902 150.829 C 275.902 150.439,275.512 150.244,274.732 150.244 C 274.088 150.244,273.561 150.060,273.561 149.835 C 273.561 149.610,273.122 149.019,272.585 148.522 C 272.049 148.025,271.610 147.418,271.610 147.175 C 271.610 146.931,271.437 146.732,271.227 146.732 C 271.016 146.732,270.734 146.293,270.599 145.756 C 270.465 145.220,270.132 144.780,269.860 144.780 C 269.588 144.780,269.258 144.242,269.127 143.584 C 268.994 142.919,268.712 142.496,268.492 142.631 C 268.275 142.766,268.098 142.616,268.098 142.299 C 268.098 141.983,267.914 141.662,267.690 141.588 C 267.466 141.513,267.253 141.064,267.217 140.590 C 267.182 140.116,266.926 139.641,266.649 139.535 C 266.373 139.428,266.146 139.073,266.146 138.744 C 266.146 138.415,265.883 138.146,265.561 138.146 C 265.239 138.146,264.976 137.883,264.976 137.561 C 264.976 137.239,264.712 136.976,264.390 136.976 C 264.068 136.976,263.805 136.646,263.805 136.243 C 263.805 135.840,263.543 135.293,263.224 135.028 C 262.904 134.763,262.739 134.390,262.857 134.200 C 262.974 134.009,262.797 133.854,262.462 133.854 C 262.127 133.854,261.854 133.590,261.854 133.268 C 261.854 132.946,261.634 132.680,261.366 132.677 C 261.041 132.673,261.073 132.545,261.463 132.293 C 261.854 132.040,261.886 131.912,261.561 131.908 C 260.777 131.899,259.509 130.412,259.426 129.405 C 259.378 128.826,259.160 128.550,258.845 128.671 C 258.529 128.792,258.341 128.549,258.341 128.019 C 258.341 127.554,258.166 127.282,257.951 127.415 C 257.737 127.547,257.561 127.382,257.561 127.047 C 257.561 126.713,257.298 126.439,256.976 126.439 C 256.585 126.439,256.390 126.049,256.390 125.268 C 256.390 124.488,256.195 124.098,255.805 124.098 C 255.480 124.098,255.220 123.751,255.220 123.317 C 255.220 122.883,254.959 122.537,254.634 122.537 C 254.187 122.537,254.049 122.047,254.049 120.468 C 254.049 119.331,253.878 118.229,253.670 118.021 C 253.438 117.789,253.277 111.123,253.256 100.801 C 253.227 86.650,253.132 83.885,252.659 83.493 C 252.350 83.236,252.098 82.603,252.098 82.086 C 252.098 81.569,251.834 81.045,251.512 80.922 C 251.190 80.798,250.927 80.452,250.927 80.153 C 250.927 79.854,250.795 79.631,250.634 79.656 C 249.864 79.777,249.343 79.572,249.554 79.231 C 249.683 79.023,249.342 78.740,248.796 78.603 C 248.251 78.466,247.805 78.198,247.805 78.006 C 247.805 77.328,184.079 77.599,183.477 78.280 " stroke="none" fill="#4474cc" fill-rule="evenodd"></path><path id="path2" d="M178.341 128.585 C 178.341 129.539,178.518 129.951,178.927 129.951 C 179.335 129.951,179.526 130.394,179.557 131.415 C 179.582 132.220,179.688 132.548,179.791 132.144 C 180.142 130.776,179.497 127.220,178.899 127.220 C 178.522 127.220,178.341 127.662,178.341 128.585 M180.062 134.049 C 180.590 137.752,181.862 140.793,185.202 146.341 C 187.679 150.455,190.830 155.079,191.275 155.252 C 191.459 155.324,191.610 155.562,191.610 155.781 C 191.610 156.152,193.502 158.753,194.629 159.930 C 194.900 160.214,195.122 160.567,195.122 160.715 C 195.122 160.863,195.561 161.457,196.098 162.037 C 196.635 162.616,197.473 163.668,197.959 164.374 C 198.445 165.081,200.607 168.029,202.763 170.927 C 204.920 173.824,208.236 178.302,210.134 180.878 C 212.031 183.454,213.688 185.649,213.816 185.756 C 214.400 186.246,216.715 189.821,216.715 190.233 C 216.715 190.588,207.048 204.024,205.228 206.198 C 204.720 206.805,199.055 214.541,197.942 216.148 C 197.440 216.873,196.763 217.732,196.439 218.056 C 196.114 218.381,195.555 219.104,195.196 219.665 C 194.313 221.040,194.160 221.246,192.794 222.881 C 192.143 223.660,191.610 224.419,191.610 224.567 C 191.610 224.715,191.390 225.066,191.122 225.346 C 190.854 225.626,190.371 226.249,190.049 226.730 C 189.727 227.211,189.014 228.242,188.465 229.022 C 187.915 229.801,187.342 230.702,187.191 231.024 C 187.040 231.346,186.386 232.488,185.738 233.561 C 182.878 238.295,179.859 245.723,179.938 247.833 C 179.966 248.586,180.048 248.500,180.340 247.415 C 181.002 244.954,181.912 242.168,182.445 240.976 C 183.865 237.796,184.677 236.126,185.668 234.341 C 186.746 232.399,188.878 229.055,189.274 228.683 C 189.388 228.576,189.814 227.961,190.221 227.317 C 191.129 225.881,203.674 208.849,204.488 207.948 C 204.810 207.592,205.776 206.313,206.634 205.106 C 208.028 203.147,212.188 197.499,212.982 196.488 C 218.048 190.035,218.025 190.508,213.566 184.739 C 210.593 180.893,209.171 178.957,209.171 178.757 C 209.171 178.631,208.735 178.059,208.203 177.485 C 207.671 176.912,206.749 175.750,206.155 174.903 C 205.560 174.057,201.579 168.658,197.309 162.905 C 187.019 149.044,181.097 139.569,181.067 136.925 C 181.064 136.631,180.799 135.600,180.478 134.634 C 180.091 133.468,179.951 133.271,180.062 134.049 M179.199 251.727 C 178.942 253.227,178.765 256.075,178.805 258.056 C 178.855 260.449,178.915 260.872,178.987 259.317 C 179.046 258.029,179.305 255.263,179.562 253.169 C 180.109 248.713,179.875 247.784,179.199 251.727 M178.785 303.879 C 178.756 304.779,178.907 305.623,179.122 305.756 C 179.337 305.889,179.512 306.297,179.512 306.664 C 179.512 307.861,181.405 310.153,183.003 310.889 C 183.862 311.286,184.570 311.829,184.575 312.098 C 184.590 312.798,185.756 312.702,185.756 312.000 C 185.756 311.678,185.534 311.415,185.263 311.415 C 182.420 311.415,179.715 307.880,178.990 303.220 C 178.901 302.650,178.816 302.925,178.785 303.879 " stroke="none" fill="#a4bce4" fill-rule="evenodd"></path><path id="path3" d="M178.341 126.829 C 178.341 127.044,178.605 127.220,178.927 127.220 C 179.249 127.220,179.512 127.044,179.512 126.829 C 179.512 126.615,179.249 126.439,178.927 126.439 C 178.605 126.439,178.341 126.615,178.341 126.829 M178.913 281.951 C 178.913 293.327,178.963 297.924,179.024 292.168 C 179.085 286.411,179.085 277.104,179.024 271.485 C 178.963 265.866,178.913 270.576,178.913 281.951 " stroke="none" fill="#94b4e4" fill-rule="evenodd"></path><path id="path4" d="M178.602 122.797 C 178.063 123.336,178.319 126.439,178.903 126.439 C 179.442 126.439,179.546 126.855,180.066 131.122 C 180.158 131.873,180.158 130.644,180.067 128.390 C 179.856 123.149,179.522 121.876,178.602 122.797 M180.449 133.692 C 180.608 134.103,180.872 135.148,181.035 136.014 C 181.381 137.854,182.212 139.553,182.232 138.462 C 182.239 138.099,182.091 137.708,181.905 137.593 C 181.719 137.478,181.450 136.509,181.308 135.439 C 181.167 134.370,180.850 133.372,180.605 133.220 C 180.299 133.031,180.250 133.178,180.449 133.692 M182.244 139.604 C 182.244 140.135,184.322 144.004,184.507 143.818 C 184.608 143.717,184.199 142.663,183.599 141.476 C 182.551 139.405,182.244 138.981,182.244 139.604 M186.447 147.490 C 187.576 149.411,190.868 154.205,192.754 156.675 C 193.735 157.958,194.670 159.187,194.834 159.406 C 196.663 161.858,197.564 163.053,198.076 163.707 C 198.792 164.623,213.692 184.784,216.057 188.036 L 217.675 190.262 215.757 192.887 C 214.703 194.331,213.975 195.511,214.139 195.510 C 214.304 195.508,214.878 194.850,215.414 194.046 C 215.950 193.243,216.610 192.352,216.880 192.067 C 218.160 190.716,218.108 190.278,216.357 187.702 C 215.411 186.310,214.461 185.113,214.245 185.041 C 214.030 184.969,213.854 184.731,213.854 184.511 C 213.854 184.108,212.065 181.693,210.443 179.906 C 209.958 179.372,209.561 178.708,209.561 178.431 C 209.561 178.154,209.298 177.826,208.976 177.702 C 208.654 177.579,208.390 177.233,208.390 176.934 C 208.390 176.635,208.259 176.389,208.098 176.388 C 207.937 176.386,207.367 175.728,206.833 174.924 C 206.298 174.121,205.767 173.376,205.652 173.268 C 204.945 172.607,202.927 169.772,202.927 169.440 C 202.927 169.220,202.777 168.982,202.593 168.911 C 202.410 168.839,199.921 165.620,197.064 161.756 C 194.206 157.893,191.722 154.673,191.544 154.602 C 191.365 154.530,191.220 154.292,191.220 154.072 C 191.220 153.853,190.737 153.033,190.146 152.250 C 189.053 150.800,188.778 150.382,187.224 147.808 C 186.738 147.005,186.213 146.346,186.057 146.344 C 185.900 146.343,186.076 146.858,186.447 147.490 M213.184 196.381 C 211.183 198.926,208.422 202.926,208.668 202.924 C 208.837 202.923,209.413 202.264,209.948 201.461 C 210.482 200.657,211.014 199.912,211.129 199.805 C 211.891 199.092,213.914 196.223,213.761 196.070 C 213.659 195.968,213.399 196.107,213.184 196.381 M205.840 206.331 C 204.591 208.000,203.140 209.980,202.614 210.732 L 201.658 212.098 202.780 210.845 C 203.397 210.156,204.693 208.522,205.659 207.215 C 206.624 205.907,207.655 204.574,207.949 204.253 C 208.243 203.933,208.399 203.586,208.296 203.483 C 208.194 203.381,207.088 204.662,205.840 206.331 M199.770 214.537 C 198.841 215.771,197.940 216.956,197.769 217.171 C 195.491 220.017,194.261 221.747,194.606 221.620 C 194.841 221.534,196.393 219.620,198.057 217.366 C 199.720 215.112,201.255 213.049,201.466 212.780 C 201.678 212.512,201.763 212.293,201.656 212.293 C 201.548 212.293,200.699 213.302,199.770 214.537 M192.692 223.952 C 191.892 224.953,190.699 226.646,190.041 227.715 L 188.846 229.659 190.022 228.293 C 190.669 227.541,191.203 226.722,191.209 226.472 C 191.215 226.221,191.353 225.958,191.515 225.886 C 191.952 225.694,194.460 222.426,194.291 222.269 C 194.211 222.195,193.492 222.952,192.692 223.952 M188.098 230.439 C 187.822 230.771,187.684 231.131,187.791 231.238 C 187.899 231.346,188.212 231.162,188.488 230.829 C 188.764 230.497,188.901 230.137,188.794 230.030 C 188.687 229.923,188.373 230.107,188.098 230.439 M183.912 238.130 C 181.861 242.405,181.394 243.572,181.635 243.814 C 181.745 243.924,181.953 243.682,182.097 243.275 C 182.515 242.097,183.808 239.186,184.833 237.117 C 185.353 236.067,185.707 235.138,185.621 235.052 C 185.535 234.966,184.765 236.351,183.912 238.130 M180.946 245.549 C 180.818 246.253,180.591 247.252,180.442 247.768 C 180.257 248.407,180.307 248.623,180.599 248.442 C 180.835 248.296,181.147 247.383,181.293 246.412 C 181.598 244.379,181.296 243.627,180.946 245.549 M179.810 251.707 C 179.652 253.102,179.441 255.824,179.340 257.756 L 179.157 261.268 179.725 256.976 C 180.037 254.615,180.249 251.893,180.195 250.927 C 180.104 249.293,180.077 249.348,179.810 251.707 M253.058 283.122 C 253.058 293.210,253.109 297.393,253.170 292.417 C 253.232 287.442,253.232 279.188,253.170 274.076 C 253.109 268.963,253.058 273.034,253.058 283.122 M179.158 303.220 C 179.144 303.541,179.383 304.595,179.687 305.561 C 180.066 306.763,180.239 307.009,180.237 306.341 C 180.233 305.272,179.196 302.273,179.158 303.220 M180.820 308.312 C 181.675 309.661,183.378 310.869,184.893 311.201 C 185.587 311.354,186.146 311.724,186.146 312.031 C 186.146 312.336,186.498 312.585,186.927 312.585 C 187.356 312.585,187.707 312.341,187.707 312.042 C 187.707 311.475,186.897 311.024,185.881 311.024 C 184.861 311.024,182.696 309.821,181.417 308.543 C 180.370 307.498,180.282 307.464,180.820 308.312 " stroke="none" fill="#81a6de" fill-rule="evenodd"></path></g></svg>